<svg xmlns="http://www.w3.org/2000/svg" xmlns:xlink="http://www.w3.org/1999/xlink" fill="none" version="1.1" width="40" height="40" viewBox="0 0 40 40"><g style="mix-blend-mode:passthrough"><g><g style="mix-blend-mode:passthrough"></g><g style="mix-blend-mode:passthrough"><path d="M16.000500000000002,1.5Q18.3393,1.5,20.4774,2.404303Q22.5414,3.27729,24.1322,4.86822Q25.7229,6.45911,26.5958,8.5232Q27.5,10.661249999999999,27.5,13Q27.5,15.3387,26.5958,17.4768Q25.7229,19.5409,24.1322,21.1318Q22.5414,22.7227,20.4774,23.5957Q18.3393,24.5,16.000500000000002,24.5Q13.66161,24.5,11.52344,23.5957Q9.459299999999999,22.7227,7.86834,21.1318Q6.277367,19.5409,5.404343,17.4769Q4.5,15.3388,4.5,13Q4.5,10.66123,5.404343,8.523119999999999Q6.277366,6.4590499999999995,7.86834,4.86816Q9.459299999999999,3.277266,11.52344,2.404289Q13.66162,1.5,16.000500000000002,1.5ZM16.000500000000002,4.5Q12.47924,4.5,9.989609999999999,6.989520000000001Q7.5,9.47902,7.5,13Q7.5,16.521,9.989609999999999,19.0105Q12.47925,21.5,16.000500000000002,21.5Q19.5215,21.5,22.0108,19.0105Q24.5,16.5211,24.5,13Q24.5,9.47887,22.0108,6.989459999999999Q19.5215,4.5,16.000500000000002,4.5Z" fill="#007AFF" fill-opacity="1"/></g><g style="mix-blend-mode:passthrough"><path d="M35.5,37Q35.5,28.0413,29.057978,23.2828Q28.170964,22.6276,28.035736,21.5255Q27.90233,20.4382,28.584731,19.5862Q31.65613,15.7514,31.49152,11.93317Q31.32476,8.065249999999999,27.85543,3.9695169999999997L30.14457,2.0304830000000003Q34.27774,6.90992,34.488730000000004,11.80395Q34.70187,16.7476,30.92627,21.4616Q31.0339,21.3272,31.01341,21.1601Q30.99147,20.9813,30.84042,20.8698Q38.5,26.5276,38.5,37L35.5,37ZM38.5,37Q38.5,37.0737,38.492779999999996,37.147Q38.48555,37.2204,38.471180000000004,37.2926Q38.4568,37.3649,38.43541,37.4354Q38.41402,37.5059,38.38582,37.574Q38.35762,37.6421,38.32288,37.7071Q38.28814,37.7721,38.2472,37.8334Q38.20626,37.8946,38.15952,37.9516Q38.11277,38.0086,38.06066,38.0607Q38.00855,38.1128,37.951589999999996,38.1595Q37.89463,38.2063,37.833349999999996,38.2472Q37.77208,38.2881,37.70709,38.3229Q37.64211,38.3576,37.574020000000004,38.3858Q37.50594,38.414,37.43543,38.4354Q37.36491,38.4568,37.29263,38.4712Q37.22036,38.4855,37.14703,38.4928Q37.07369,38.5,37,38.5Q36.92631,38.5,36.85297,38.4928Q36.77964,38.4855,36.70736,38.4712Q36.63509,38.4568,36.56457,38.4354Q36.49406,38.414,36.42597,38.3858Q36.35789,38.3576,36.2929,38.3229Q36.22791,38.2881,36.16664,38.2472Q36.10537,38.2063,36.04841,38.1595Q35.99145,38.1128,35.93934,38.0607Q35.88723,38.0086,35.84048,37.9516Q35.79374,37.8946,35.75279,37.8334Q35.71185,37.7721,35.67712,37.7071Q35.64238,37.6421,35.61418,37.574Q35.58598,37.5059,35.56459,37.4354Q35.5432,37.3649,35.528819999999996,37.2926Q35.51445,37.2204,35.507220000000004,37.147Q35.5,37.0737,35.5,37Q35.5,36.9263,35.507220000000004,36.853Q35.51444,36.7796,35.528819999999996,36.7074Q35.5432,36.6351,35.56459,36.5646Q35.58598,36.494,35.61418,36.426Q35.64238,36.3579,35.67712,36.2929Q35.71185,36.2279,35.75279,36.1666Q35.79374,36.1054,35.84048,36.0484Q35.88723,35.9914,35.93934,35.9393Q35.99145,35.8872,36.04841,35.8405Q36.10537,35.7937,36.16664,35.7528Q36.22792,35.7119,36.2929,35.6771Q36.35789,35.6424,36.42597,35.6142Q36.49406,35.586,36.56457,35.5646Q36.63509,35.5432,36.70736,35.5288Q36.77964,35.5144,36.85297,35.5072Q36.92631,35.5,37,35.5Q37.07369,35.5,37.14703,35.5072Q37.22036,35.5144,37.29263,35.5288Q37.36491,35.5432,37.43543,35.5646Q37.50594,35.586,37.574020000000004,35.6142Q37.64211,35.6424,37.70709,35.6771Q37.77208,35.7119,37.833349999999996,35.7528Q37.89463,35.7937,37.951589999999996,35.8405Q38.00855,35.8872,38.06066,35.9393Q38.11277,35.9914,38.15952,36.0484Q38.20626,36.1054,38.2472,36.1666Q38.28814,36.2279,38.32288,36.2929Q38.35762,36.3579,38.38582,36.426Q38.41402,36.494,38.43541,36.5646Q38.4568,36.6351,38.471180000000004,36.7074Q38.48555,36.7796,38.492779999999996,36.853Q38.5,36.9263,38.5,37ZM30.5,3Q30.5,3.0736903,30.49278,3.147026Q30.48555,3.220361,30.47118,3.2926349999999998Q30.4568,3.36491,30.43541,3.435427Q30.41402,3.505944,30.38582,3.574025Q30.35762,3.642106,30.32288,3.707095Q30.28814,3.772084,30.2472,3.833355Q30.20626,3.894627,30.15952,3.95159Q30.11277,4.00855,30.06066,4.06066Q30.00855,4.11277,29.95159,4.1595200000000006Q29.894627,4.20626,29.833355,4.2472Q29.772084,4.28814,29.707095,4.32288Q29.642106,4.35762,29.574025,4.38582Q29.505944,4.41402,29.435427,4.43541Q29.36491,4.4568,29.292635,4.47118Q29.220361,4.48555,29.147026,4.49278Q29.0736903,4.5,29,4.5Q28.9263097,4.5,28.852974,4.49278Q28.779639,4.48555,28.707365,4.47118Q28.63509,4.4568,28.564573,4.43541Q28.494056,4.41402,28.425975,4.38582Q28.357894,4.35762,28.292905,4.32288Q28.227916,4.28814,28.166645,4.2472Q28.105373,4.20626,28.04841,4.1595200000000006Q27.99145,4.11277,27.93934,4.06066Q27.88723,4.00855,27.84048,3.95159Q27.79374,3.894627,27.7528,3.833355Q27.71186,3.772084,27.67712,3.707095Q27.64238,3.642106,27.61418,3.574025Q27.58598,3.505944,27.56459,3.435427Q27.5432,3.36491,27.52882,3.2926349999999998Q27.51445,3.220361,27.50722,3.147026Q27.5,3.0736903,27.5,3Q27.5,2.9263097,27.50722,2.852974Q27.51445,2.779639,27.52882,2.7073650000000002Q27.5432,2.63509,27.56459,2.564573Q27.58598,2.494056,27.61418,2.425975Q27.64238,2.357894,27.67712,2.292905Q27.71186,2.227916,27.7528,2.166645Q27.79374,2.105373,27.84048,2.04841Q27.88723,1.99145,27.93934,1.93934Q27.99145,1.88723,28.04841,1.84048Q28.105373,1.79374,28.166645,1.7528Q28.227916,1.71186,28.292905,1.67712Q28.357894,1.64238,28.425975,1.61418Q28.494056,1.58598,28.564573,1.56459Q28.63509,1.5432,28.707365,1.52882Q28.779639,1.51445,28.852974,1.50722Q28.9263097,1.5,29,1.5Q29.0736903,1.5,29.147026,1.50722Q29.220361,1.51445,29.292635,1.52882Q29.36491,1.5432,29.435427,1.56459Q29.505944,1.58598,29.574025,1.61418Q29.642106,1.64238,29.707095,1.67712Q29.772084,1.71186,29.833355,1.7528Q29.894627,1.79374,29.95159,1.84048Q30.00855,1.88723,30.06066,1.93934Q30.11277,1.99145,30.15952,2.04841Q30.20626,2.105373,30.2472,2.166645Q30.28814,2.227916,30.32288,2.292905Q30.35762,2.357894,30.38582,2.425975Q30.41402,2.494056,30.43541,2.564573Q30.4568,2.63509,30.47118,2.7073650000000002Q30.48555,2.779639,30.49278,2.852974Q30.5,2.9263097,30.5,3Z" fill="#007AFF" fill-opacity="1"/></g><g style="mix-blend-mode:passthrough"><path d="M0.5,37Q0.5,33.8475,1.718683,30.96624Q2.895311,28.18438,5.03984,26.039839999999998Q7.18438,23.895309,9.966239999999999,22.718682Q12.8475,21.5,16,21.5Q19.1525,21.5,22.0338,22.718683Q24.8156,23.895311,26.9602,26.039839999999998Q29.1047,28.18438,30.2813,30.96624Q31.5,33.8475,31.5,37L28.5,37Q28.5,34.4559,27.5183,32.1349Q26.5696,29.89195,24.8388,28.16117Q23.1081,26.43038,20.8651,25.4817Q18.5441,24.5,16,24.5Q13.4559,24.5,11.1349,25.48169Q8.89195,26.43038,7.16117,28.16116Q5.4303799999999995,29.89195,4.4817,32.1349Q3.5,34.4559,3.5,37L0.5,37ZM31.5,37Q31.5,37.0737,31.4928,37.147Q31.4856,37.2204,31.4712,37.2926Q31.4568,37.3649,31.4354,37.4354Q31.414,37.5059,31.3858,37.574Q31.3576,37.6421,31.3229,37.7071Q31.2881,37.7721,31.2472,37.8334Q31.2063,37.8946,31.1595,37.9516Q31.1128,38.0086,31.0607,38.0607Q31.0086,38.1128,30.9516,38.1595Q30.8946,38.2063,30.8334,38.2472Q30.7721,38.2881,30.7071,38.322900000000004Q30.6421,38.3576,30.574,38.3858Q30.5059,38.414,30.4354,38.4354Q30.3649,38.4568,30.2926,38.471199999999996Q30.2204,38.4856,30.147,38.4928Q30.0737,38.5,30,38.5Q29.9263,38.5,29.853,38.4928Q29.7796,38.4856,29.7074,38.471199999999996Q29.6351,38.4568,29.5646,38.4354Q29.4941,38.414,29.426,38.3858Q29.3579,38.3576,29.2929,38.322900000000004Q29.2279,38.2881,29.1666,38.2472Q29.1054,38.2063,29.0484,38.1595Q28.9914,38.1128,28.9393,38.0607Q28.8872,38.0086,28.8405,37.9516Q28.7937,37.8946,28.7528,37.8334Q28.7119,37.7721,28.6771,37.7071Q28.6424,37.6421,28.6142,37.574Q28.586,37.5059,28.5646,37.4354Q28.5432,37.3649,28.5288,37.2926Q28.5144,37.2204,28.5072,37.147Q28.5,37.0737,28.5,37Q28.5,36.9263,28.5072,36.853Q28.5144,36.7796,28.5288,36.7074Q28.5432,36.6351,28.5646,36.5646Q28.586,36.4941,28.6142,36.426Q28.6424,36.3579,28.6771,36.2929Q28.7119,36.2279,28.7528,36.1666Q28.7937,36.1054,28.8405,36.0484Q28.8872,35.9914,28.9393,35.9393Q28.9914,35.8872,29.0484,35.8405Q29.1054,35.7937,29.1666,35.7528Q29.2279,35.7119,29.2929,35.677099999999996Q29.3579,35.6424,29.426,35.6142Q29.4941,35.586,29.5646,35.5646Q29.6351,35.5432,29.7074,35.528800000000004Q29.7796,35.5144,29.853,35.5072Q29.9263,35.5,30,35.5Q30.0737,35.5,30.147,35.5072Q30.2204,35.5144,30.2926,35.528800000000004Q30.3649,35.5432,30.4354,35.5646Q30.5059,35.586,30.574,35.6142Q30.6421,35.6424,30.7071,35.677099999999996Q30.7721,35.7119,30.8334,35.7528Q30.8946,35.7937,30.9516,35.8405Q31.0086,35.8872,31.0607,35.9393Q31.1128,35.9914,31.1595,36.0484Q31.2063,36.1054,31.2472,36.1666Q31.2881,36.2279,31.3229,36.2929Q31.3576,36.3579,31.3858,36.426Q31.414,36.4941,31.4354,36.5646Q31.4568,36.6351,31.4712,36.7074Q31.4856,36.7796,31.4928,36.853Q31.5,36.9263,31.5,37ZM3.5,37Q3.5,37.0737,3.4927799999999998,37.147Q3.48555,37.2204,3.47118,37.2926Q3.4568000000000003,37.3649,3.43541,37.4354Q3.41402,37.5059,3.38582,37.574Q3.35762,37.6421,3.32288,37.7071Q3.2881400000000003,37.7721,3.2472000000000003,37.8334Q3.2062600000000003,37.8946,3.15952,37.9516Q3.1127700000000003,38.0086,3.06066,38.0607Q3.00855,38.1128,2.95159,38.1595Q2.894627,38.2063,2.833355,38.2472Q2.772084,38.2881,2.707095,38.322900000000004Q2.642106,38.3576,2.574025,38.3858Q2.505944,38.414,2.435427,38.4354Q2.36491,38.4568,2.2926349999999998,38.471199999999996Q2.220361,38.4856,2.147026,38.4928Q2.0736903,38.5,2,38.5Q1.9263097,38.5,1.8529740000000001,38.4928Q1.779639,38.4856,1.707365,38.471199999999996Q1.63509,38.4568,1.564573,38.4354Q1.494056,38.414,1.425975,38.3858Q1.357894,38.3576,1.292905,38.322900000000004Q1.227916,38.2881,1.166645,38.2472Q1.1053730000000002,38.2063,1.04841,38.1595Q0.9914499999999999,38.1128,0.9393400000000001,38.0607Q0.88723,38.0086,0.8404799999999999,37.9516Q0.7937399999999999,37.8946,0.7527999999999999,37.8334Q0.7118599999999999,37.7721,0.6771199999999999,37.7071Q0.64238,37.6421,0.61418,37.574Q0.58598,37.5059,0.5645899999999999,37.4354Q0.5431999999999999,37.3649,0.5288200000000001,37.2926Q0.5144500000000001,37.2204,0.50722,37.147Q0.5,37.0737,0.5,37Q0.5,36.9263,0.50722,36.853Q0.5144500000000001,36.7796,0.5288200000000001,36.7074Q0.5431999999999999,36.6351,0.5645899999999999,36.5646Q0.58598,36.4941,0.61418,36.426Q0.64238,36.3579,0.6771199999999999,36.2929Q0.7118599999999999,36.2279,0.7527999999999999,36.1666Q0.7937399999999999,36.1054,0.8404799999999999,36.0484Q0.88723,35.9914,0.9393400000000001,35.9393Q0.9914499999999999,35.8872,1.04841,35.8405Q1.1053730000000002,35.7937,1.166645,35.7528Q1.227916,35.7119,1.292905,35.677099999999996Q1.357894,35.6424,1.425975,35.6142Q1.494056,35.586,1.564573,35.5646Q1.63509,35.5432,1.707365,35.528800000000004Q1.779639,35.5144,1.8529740000000001,35.5072Q1.9263097,35.5,2,35.5Q2.0736903,35.5,2.147026,35.5072Q2.220361,35.5144,2.2926349999999998,35.528800000000004Q2.36491,35.5432,2.435427,35.5646Q2.505944,35.586,2.574025,35.6142Q2.642106,35.6424,2.707095,35.677099999999996Q2.772084,35.7119,2.833355,35.7528Q2.894627,35.7937,2.95159,35.8405Q3.00855,35.8872,3.06066,35.9393Q3.1127700000000003,35.9914,3.15952,36.0484Q3.2062600000000003,36.1054,3.2472000000000003,36.1666Q3.2881400000000003,36.2279,3.32288,36.2929Q3.35762,36.3579,3.38582,36.426Q3.41402,36.4941,3.43541,36.5646Q3.4568000000000003,36.6351,3.47118,36.7074Q3.48555,36.7796,3.4927799999999998,36.853Q3.5,36.9263,3.5,37Z" fill="#007AFF" fill-opacity="1" fill-rule="evenodd"/></g></g></g></svg>