<svg xmlns="http://www.w3.org/2000/svg" xmlns:xlink="http://www.w3.org/1999/xlink" fill="none" version="1.1" width="40" height="40" viewBox="0 0 40 40"><g style="mix-blend-mode:passthrough"><g><g style="mix-blend-mode:passthrough"></g><g style="mix-blend-mode:passthrough"><path d="M17.16666603088379,36.66666603088379L14.166666030883789,36.66666603088379L14.166666030883789,21.16666603088379C14.166666030883789,20.062097030883788,15.06209703088379,19.16666603088379,16.16666603088379,19.16666603088379L23.83333603088379,19.16666603088379C24.93786603088379,19.16666603088379,25.833366030883788,20.062097030883788,25.833366030883788,21.16666603088379L25.833366030883788,36.66666603088379L17.16666603088379,36.66666603088379ZM17.16666603088379,33.66666603088379L22.83333603088379,33.66666603088379L22.83333603088379,22.16666603088379L17.16666603088379,22.16666603088379L17.16666603088379,33.66666603088379Z" fill-rule="evenodd" fill="#007AFF" fill-opacity="1"/></g><g style="mix-blend-mode:passthrough"><path d="M2.5,32.6667L2.5,18.704C2.5,17.0238,3.2044829999999997,15.4206,4.44212,14.2843L14.5895,4.96759C17.6494,2.15814,22.3506,2.15814,25.4105,4.96759L35.5579,14.2843C36.7955,15.4206,37.5,17.0238,37.5,18.704L37.5,32.6667C37.5,34.8758,35.7091,36.6667,33.5,36.6667L6.5,36.6667C4.29086,36.6667,2.5,34.8758,2.5,32.6667ZM5.5,32.6667L5.5,18.704Q5.5,17.3857,6.47106,16.4941L16.6184,7.17743Q18.052799999999998,5.8605,20,5.8605Q21.9472,5.8605,23.3816,7.17743L33.5289,16.4941Q34.5,17.3857,34.5,18.704L34.5,32.6667Q34.5,33.0809,34.2071,33.3738Q33.9142,33.6667,33.5,33.6667L6.5,33.6667Q6.085789999999999,33.6667,5.79289,33.3738Q5.5,33.0809,5.5,32.6667Z" fill-rule="evenodd" fill="#007AFF" fill-opacity="1"/></g></g></g></svg>