<?xml version="1.0" encoding="UTF-8"?>
<svg width="48px" height="48px" viewBox="0 0 48 48" version="1.1" xmlns="http://www.w3.org/2000/svg" xmlns:xlink="http://www.w3.org/1999/xlink">
    <title>矩形</title>
    <defs>
        <filter color-interpolation-filters="auto" id="filter-1">
            <feColorMatrix in="SourceGraphic" type="matrix" values="0 0 0 0 0.000000 0 0 0 0 0.478431 0 0 0 0 1.000000 0 0 0 1.000000 0"></feColorMatrix>
        </filter>
    </defs>
    <g id="我的" stroke="none" stroke-width="1" fill="none" fill-rule="evenodd">
        <g id="邀请提示备份-8" transform="translate(-32.000000, -320.000000)" filter="url(#filter-1)">
            <g transform="translate(32.000000, 320.000000)" id="编组">
                <rect id="矩形" x="0" y="0" width="48" height="48"></rect>
                <path d="M43.373949,21.0806885 L40.0257076,20.5565436 C39.5588766,20.4835145 39.1197781,20.2856891 38.7574063,19.9834045 C38.407052,19.7264163 38.1343487,19.3788352 37.9679535,18.9785623 C37.7581107,18.3499582 37.6212968,17.7000924 37.5602852,17.0400581 C37.4678435,16.3864947 37.5417969,15.719065 37.7756746,15.1015539 L39.7862834,12.3745213 C39.9452833,12.1203064 40.0515913,11.8346613 40.0978122,11.5379231 C40.1468064,11.241185 40.1218471,10.9370515 40.0257076,10.6532553 C39.9332658,10.3722322 39.7881322,10.1133953 39.5967777,9.88876172 L38.1158604,8.40599551 C37.7886165,8.08337368 37.3522912,7.89571686 36.89378,7.88092618 C36.4454373,7.83655412 35.9961703,7.95580402 35.628252,8.21741427 L32.9012194,10.2270986 C32.5296034,10.5229124 32.0803363,10.7050227 31.6079588,10.752168 C31.1679359,10.8261214 30.7149712,10.7595633 30.3146982,10.5598891 C29.9550997,10.3907206 29.6102919,10.1901219 29.2867456,9.95994189 C28.860589,9.66690144 28.4612405,9.33965753 28.0923978,8.97913457 C27.6930493,8.59827442 27.4776599,8.26178633 27.4471541,7.97706563 L26.9193115,4.62605098 C26.8546023,4.17678391 26.6244222,3.76819122 26.2740679,3.47977286 C25.9412775,3.17379055 25.5058767,3.00277325 25.0538363,3 L22.9498613,3 C22.6568209,3.00092442 22.3674781,3.07487784 22.1095655,3.21631377 C21.8368623,3.36144737 21.6002113,3.56666813 21.4171766,3.81533653 C21.2341418,4.05013866 21.119514,4.33116169 21.0843861,4.62605098 L20.5556191,7.97706563 C20.5195668,8.28027468 20.422503,8.57423956 20.2681252,8.83769864 C20.1091253,9.12519259 19.9076022,9.38125633 19.6672536,9.60311661 C19.4287538,9.82497689 19.2004226,9.96826165 18.9776379,10.0320465 C18.4350046,10.2243254 17.789761,10.3620637 17.0400581,10.4397148 C16.2903552,10.5210635 15.6423383,10.4489589 15.1024783,10.2243254 L12.3754457,8.2137166 C12.006603,7.95487961 11.5573359,7.8356297 11.1089933,7.87815293 C10.650482,7.89386803 10.2141568,8.08244927 9.8878373,8.40599551 L8.40599551,9.88876172 C8.21464102,10.1133953 8.06765858,10.3722322 7.97429238,10.6532553 C7.87907734,10.9370515 7.85319364,11.241185 7.90218779,11.5379231 C7.95025752,11.8411322 8.05194348,12.1203064 8.21464102,12.3745213 L10.2243254,15.1015539 C10.5108949,15.4861117 10.6930052,15.9390765 10.752168,16.4160761 C10.825197,16.8477792 10.7586389,17.2914998 10.5598891,17.6816041 C10.4304706,17.9700225 10.2298719,18.3148303 9.95994189,18.7132544 C9.68723863,19.1126029 9.35999472,19.5091781 8.97913457,19.9076022 C8.59550117,20.3069507 8.26271075,20.5204913 7.97429238,20.5528459 L4.62605098,21.0806885 C4.40696395,21.1093454 4.19434785,21.1823744 4.00484219,21.2970022 C3.81256328,21.4079324 3.6424704,21.5539904 3.50103447,21.7259321 C3.3577497,21.9006471 3.23757538,22.0938504 3.14328476,22.2981468 C3.04991856,22.5015187 3,22.7224545 3,22.9470881 L3,25.0501387 C3,25.4966325 3.15899987,25.9052252 3.48069728,26.2703702 C3.76911564,26.6207246 4.17955716,26.8509046 4.62882423,26.9156139 L7.97706563,27.4406832 C8.28027468,27.4795087 8.57331514,27.5784214 8.83862306,27.7318748 C9.126117,27.8908747 9.38125633,28.0923978 9.60311661,28.331822 C9.79909319,28.5250253 9.94607563,28.7616763 10.0320465,29.0223621 L10.1281859,29.3579258 C10.1910464,29.5196989 10.2400405,29.687943 10.2714707,29.8589603 L10.3685346,30.4080644 C10.4350927,30.7861513 10.4674473,31.1697847 10.4637496,31.5534181 L10.4637496,32.0784875 C10.4674473,32.3678303 10.3833253,32.6516265 10.2243254,32.8919752 L8.21464102,35.6190078 C7.95487961,35.9878505 7.8356297,36.4361932 7.87815293,36.8854602 C7.89479245,37.3439715 8.08337368,37.7793723 8.40599551,38.1056918 L9.8878373,39.588458 C10.2141568,39.9101554 10.650482,40.0978122 11.1089933,40.1135273 C11.5573359,40.156975 12.006603,40.0377251 12.3754457,39.7770392 L15.1024783,37.7673548 C15.6090593,37.3809482 16.2358146,37.1868204 16.8718141,37.2182506 C17.1565348,37.2237972 17.4347845,37.2977506 17.6853018,37.43364 C18.1955804,37.659198 18.785359,38.0483779 19.4546375,38.6067262 C20.1248404,39.1641502 20.4899855,39.6356033 20.5556191,40.0164634 L21.0843861,43.3647048 C21.1204384,43.661443 21.2369151,43.942466 21.4199498,44.1772681 C21.603909,44.4268609 21.8405599,44.6320817 22.1132632,44.7781397 C22.3831932,44.9278954 22.6623674,45 22.9498613,45 L25.0566096,45 C25.181406,45 25.3265396,44.9759651 25.484615,44.9278954 C25.6325219,44.8844478 25.7758067,44.8271339 25.9135449,44.7596514 C26.0429634,44.6958665 26.1631377,44.6154422 26.2712946,44.5193027 C26.3868469,44.4194656 26.4913061,44.3066866 26.5828234,44.1837391 C26.6743408,44.0626403 26.7538407,43.9350707 26.8231721,43.8001056 C26.8878813,43.6669895 26.9211604,43.5190826 26.9193115,43.3702514 L27.4443809,40.0229344 C27.5164855,39.5561034 27.7143109,39.1188537 28.0175199,38.7564819 C28.2735837,38.407052 28.6211648,38.1334243 29.0223621,37.9679535 C29.5649954,37.776599 30.2194832,37.6407096 30.9839768,37.5593608 C31.7493947,37.4789365 32.3881675,37.5510411 32.8984461,37.776599 L35.6245543,39.785359 C35.8131355,39.9129286 36.0239028,40.0025972 36.2457631,40.0506669 C36.4676234,40.0978122 36.6922569,40.1135273 36.9150416,40.0978122 C37.1359775,40.0839459 37.3532157,40.0358762 37.5602852,39.953603 C37.7673548,39.8759519 37.9540872,39.7539288 38.1093894,39.5967777 L39.5912312,38.114936 C39.9138531,37.787692 40.1015099,37.3532157 40.1190738,36.89378 C40.161597,36.4454373 40.0423471,35.9961703 39.7825857,35.6273276 L37.7729014,32.9012194 C37.4770876,32.5296034 37.2949773,32.0803363 37.247832,31.6079588 C37.1738786,31.1670115 37.2404367,30.7149712 37.4401109,30.3146982 C37.8487036,29.4965885 38.3830171,28.7468856 39.0208654,28.0923978 C39.4054233,27.6930493 39.7372893,27.4804332 40.0257076,27.4471541 L43.373949,26.9183871 C43.8232161,26.8536779 44.2336576,26.6234978 44.5230004,26.2740679 C44.8271339,25.9394286 44.9972267,25.5049522 45,25.0529119 L45,22.9498613 C44.9990756,22.6568209 44.9251222,22.3702514 44.7836862,22.1123388 C44.639477,21.8387111 44.4333319,21.6020601 44.1837391,21.4199498 C43.9489369,21.2369151 43.6688383,21.119514 43.373949,21.0806885 Z" id="Stroke-1" stroke="#007AFF" stroke-width="1.84883567"></path>
                <path d="M30.4709249,24.0001849 C30.4709249,27.5739842 27.5737994,30.4711097 24,30.4711097 C20.4262006,30.4711097 17.5290751,27.5739842 17.5290751,24.0001849 C17.5290751,20.4263855 20.4262006,17.52926 24,17.52926 C27.5737994,17.52926 30.4709249,20.4263855 30.4709249,24.0001849 Z" id="Stroke-3" stroke="#007AFF" stroke-width="1.84883567"></path>
            </g>
        </g>
    </g>
</svg>